<svg id="Capa_1" data-name="Capa 1" xmlns="http://www.w3.org/2000/svg" width="2011" height="632" viewBox="0 0 2011 632">
  <g>
    <rect width="2011" height="632" style="fill: #ff6700"/>
    <g>
      <g>
        <path d="M1908.1,2622.38c26.16.66,29.6-15.91,34-35.77,10.67-47.71,35.44-168.36,35.44-177.29,2.64-15.18-7.11-28.14-24-31.78-43.36-9.33-55.91,21.64-71.46,50.82-23,43.18-47.28,95.56-53.11,103.31-2.19,0-13-120-13.36-120-1.73-26.44-25.28-32.23-46.74-31-26.58,1.47-37.45,17-41.41,44.51-2.12,14.72-25.64,118.47-33,159.12-3.47,19.18,1.15,38,18.46,39.38,16.07,1.23,28.14-8.43,36.93-30.92,1.14,0,18.49-75.71,23.25-100.06,2.57,0,9.64,63.62,12.76,99.79,1.76,20.39,10.51,27.51,25.21,29.4,23.4,4.72,33.45-22.23,42.12-38.55,17.31-32.6,46.3-88,49.46-91.14-.82,15.81-15.18,73.22-17.33,96.8C1883.26,2611.4,1891,2621.94,1908.1,2622.38Z" transform="translate(-1544 -2173)" style="fill: #fff;fill-rule: evenodd"/>
        <path d="M2485.16,2471.38c-4,7.27-19.82,82.78-23.63,106.86-2.92,18.45-3,37.83,13,37.83,20,0,33.08-16.6,35.85-35.42l11.84-80.69c2.63-9.22,10.16-22.65,27-24.53,10.44-1.17,22.16,9.32,22.16,19.39-8.49,59.17-12.41,83.75-13.73,101.61-.74,10.14,0,18.58,19.11,19.24,7.71.26,25.52-14.38,29.16-24.4,2.57-4.57,8.58-61.45,12.39-94.4,3.61-14,12.92-19.82,26.08-21.74,24.89,0,22.35,11.7,22.9,15.09,0,10.28-14.72,100.11-15.16,100.11-1.31,16.19,4.34,24.41,14.86,25.27,15.89,1.28,30.66-16.57,35.76-32,1.56-9.37,7.23-45,10.92-76.65,3-25.76,5.29-38-18.31-57.26-22.28-18.16-73.1-20.36-94,1-13.87-12.93-40.89-14.18-58.8-13.1C2503.26,2439.93,2489.2,2464.11,2485.16,2471.38Z" transform="translate(-1544 -2173)" style="fill: #fff;fill-rule: evenodd"/>
        <path d="M2116.06,2443c-16.07,0-30.26.2-46.82.2-11.73,6.67-16,32.89-6.71,40.8h42.72c-6.36,39.27-14.06,82.69-19.54,117-1.58,9.9,4,13.73,9.9,15.07,8.66,2,17-.35,24.22-5.34a44.89,44.89,0,0,0,17.55-26.73c6.86-33.66,13.33-92.37,14.73-100,2.36,0,49.24-1.86,51.73-1.48,5.17-.94,27.31-33.73,12.52-40.51l-55.53-.12c-1-15.61,3-32.79,12.23-41.45,7.43-7,15.1-5.37,24.51-5.43l37.3-.26c3.57.35,19.79-19.53,16.41-32.75-2.11-8.23-8.35-7.16-15.31-7.31-17-.37-33.41-1.23-51.83.23C2134.45,2358.84,2116.06,2393.65,2116.06,2443Z" transform="translate(-1544 -2173)" style="fill: #fff;fill-rule: evenodd"/>
        <path d="M2247.55,2545.36c.36,0,14.14-9.89,40.21-9.89,1.16,13.63-7.71,35.08-22.16,41-27.69,11.25-37.33-17.19-18-31.07Zm-21.55-65c11.17,11.36,33.37,2.85,46-2,12.27-3.3,23.21-2.53,25.31,7.48,1.48,7-1.83,13.76-9.53,13.45-41.47-1.68-86.16,13.84-93.1,59.59-11.75,77.44,82.75,63.89,100.69,47.82,16.08-9.87,29-38.16,29.85-42.11,4.73-14.51,13.79-84.55,13.3-89.07-1.58-19.66-15.24-34.3-35-36.38a245.45,245.45,0,0,0-52.54.81c-20.6,2.9-36.91,28.25-25,40.39Z" transform="translate(-1544 -2173)" style="fill: #fff;fill-rule: evenodd"/>
        <path d="M2336.64,2597.12c-1.3,12.74,1.31,16.63,7.68,17.62,7.07,1.1,17.91,1,23.64-3.16,12.23-8.83,17.75-21.59,20.72-35.91,1.8-8.74,2.4-18,4.26-35.47,1-9.53,2.1-29,8.32-43.3,5.89-13.57,11.78-16.13,24.86-16.17,7.53,0,13.76-.08,22.15,0,16.46.16,29.48-11.54,30.17-28.34.4-10-1.46-12.39-8.71-12.39l-25.55-.12c-19,0-36-1.28-52.95,4.7-18.91,6.69-31.91,27.08-37.53,52C2348.8,2518.28,2339,2577.66,2336.64,2597.12Z" transform="translate(-1544 -2173)" style="fill: #fff;fill-rule: evenodd"/>
        <path d="M2044.54,2465.78l-24.86,126.4q-2.58,13.14-10.73,19.84a28.42,28.42,0,0,1-18.65,6.73q-10.52,0-15.72-6.88t-2.73-19.7l24.59-125.08c1.71-8.7,5.21-15.2,10.44-19.57a27.72,27.72,0,0,1,18.37-6.57q10.5,0,16,6.57c3.67,4.38,4.76,10.49,3.25,18.25Zm-17.07-36.87q-11.1,0-17.77-6.68c-4.45-4.45-5.91-10.79-4.43-19A28.64,28.64,0,0,1,2016.6,2385c6.26-4.78,13-7.2,20.07-7.2,6.93,0,12.59,2.16,17.14,6.48s6.06,10.67,4.58,18.91q-2.19,12.08-11.19,18.84a32,32,0,0,1-19.74,6.88Z" transform="translate(-1544 -2173)" style="fill: #fff;fill-rule: evenodd"/>
        <path d="M2771,2540.61c.38,0,14.15-9.89,40.22-9.89,1.16,13.61-7.72,35.08-22.16,41-27.69,11.25-37.33-17.2-18.06-31.07Zm-21.18-65c11.18,11.36,33.38,2.85,46-2,12.26-3.3,23.2-2.53,25.3,7.48,1.47,7-1.83,13.76-9.53,13.45-41.46-1.68-86.16,13.84-93.1,59.6-11.75,77.44,82.75,63.88,100.7,47.8,16.07-9.85,29-38.14,29.83-42.11,4.73-14.5,13.81-84.54,13.31-89.06-1.58-19.66-15.25-34.3-35-36.38a245.54,245.54,0,0,0-52.55.82c-20.59,2.89-36.92,28.23-25,40.37Z" transform="translate(-1544 -2173)" style="fill: #fff;fill-rule: evenodd"/>
      </g>
      <g>
        <path d="M3399.21,2417.58h0a32.66,32.66,0,0,0-26.68-13.58H3285l27.64-89.25a30.66,30.66,0,0,0-29.29-39.75H3213.7a90.39,90.39,0,0,0-86.25,62.76L3106,2404h-66.22a97.23,97.23,0,0,0-92.75,67.44L2926.78,2534a32.88,32.88,0,0,0,31.25,43h91.87l-28.47,88.06a28.21,28.21,0,0,0,26.84,36.94h65.14a106.77,106.77,0,0,0,102.53-75.54l15.32-49.46h62.19a93.83,93.83,0,0,0,89.43-65.07l20.95-64.82A32.71,32.71,0,0,0,3399.21,2417.58Z" transform="translate(-1544 -2173)" style="fill: #fff"/>
        <g>
          <path d="M3372.54,2418H3265.91l33.31-107.54a16.54,16.54,0,0,0-15.81-21.46h-69.74a76.53,76.53,0,0,0-72.82,53l-24.57,76h-76.39a83.51,83.51,0,0,0-79.44,57.75l-20.3,62.62A18.8,18.8,0,0,0,2958,2563h111.25l-34.38,106.53a14.12,14.12,0,0,0,9.09,17.78,13.94,13.94,0,0,0,4.35.69h65.17a93.18,93.18,0,0,0,89-65.6l18.4-59.4h72.48a80,80,0,0,0,76.14-55.37l21-64.88a19,19,0,0,0-17.92-24.75Z" transform="translate(-1544 -2173)" style="fill: #43aa00"/>
          <g>
            <path d="M3283.37,2289H3234a73.09,73.09,0,0,0-69,48.81l-20.57,58.46a16.3,16.3,0,0,0,10,20.8,16.13,16.13,0,0,0,5.42.93h106l33.31-107.54a16.57,16.57,0,0,0-15.79-21.46Z" transform="translate(-1544 -2173)" style="fill: #fce300"/>
            <path d="M3372.6,2418H3265.89l-30.46,102.84a11,11,0,0,0,7.38,13.7,11.17,11.17,0,0,0,3.15.46h61.41a73.37,73.37,0,0,0,69.79-50.75l13.47-41.43a18.73,18.73,0,0,0-18-24.82Z" transform="translate(-1544 -2173)" style="fill: #fce300"/>
          </g>
          <g>
            <path d="M3048.35,2688h52.41c31,0,58.64-19,69-47.3l20.58-56.65c3.74-10.27-4.14-21.05-15.39-21.05H3068.85l-33.2,104.27C3032.37,2677.56,3037.23,2688,3048.35,2688Z" transform="translate(-1544 -2173)" style="fill: #006328"/>
            <path d="M2959.22,2563h109.25l31.33-102c2.16-7-3.29-14-10.87-14h-63.18c-32.71,0-61.7,20.32-71.79,50.32l-13.65,40.6C2936.14,2550.31,2945.71,2563,2959.22,2563Z" transform="translate(-1544 -2173)" style="fill: #006328"/>
          </g>
        </g>
      </g>
    </g>
  </g>
</svg>
